HIERARCHY
ROOT Hips
{
	OFFSET 51.326599 -5.197656 96.239899
	CHANNELS 6 Xposition Yposition Zposition Xrotation Yrotation Zrotation
	JOINT spine
	{
		OFFSET 0.000000 -0.467660 8.132492
		CHANNELS 3 Xrotation Yrotation Zrotation
		JOINT spine1
		{
			OFFSET 0.000000 -0.000001 10.349800
			CHANNELS 3 Xrotation Yrotation Zrotation
			JOINT spine2
			{
				OFFSET 0.000000 -0.000002 9.916992
				CHANNELS 3 Xrotation Yrotation Zrotation
				JOINT Neck
				{
					OFFSET 0.000000 -1.213904 25.461006
					CHANNELS 3 Xrotation Yrotation Zrotation
					JOINT Head
					{
						OFFSET 0.000000 -0.000001 7.692444
						CHANNELS 3 Xrotation Yrotation Zrotation
						End Site
						{
							OFFSET 0.000000 6.140627 18.619995
						}
					}
				}
				JOINT RightShoulder
				{
					OFFSET -4.175751 0.581444 10.709602
					CHANNELS 3 Xrotation Yrotation Zrotation
					JOINT RightArm
					{
						OFFSET 0.000000 -0.000002 14.046600
						CHANNELS 3 Xrotation Yrotation Zrotation
						JOINT RightArmRoll
						{
							OFFSET 0.000000 -0.000001 7.090973
							CHANNELS 3 Xrotation Yrotation Zrotation
							JOINT RightForeArm
							{
								OFFSET 0.000000 -0.000004 20.653503
								CHANNELS 3 Xrotation Yrotation Zrotation
								JOINT RightForeArmRoll
								{
									OFFSET 0.000000 -0.000001 7.957184
									CHANNELS 3 Xrotation Yrotation Zrotation
									JOINT RightHand
									{
										OFFSET 0.000000 -0.000003 15.968292
										CHANNELS 3 Xrotation Yrotation Zrotation
										End Site
										{
											OFFSET 0.000000 0.000000 0.100006
										}
									}
								}
							}
						}
					}
				}
				JOINT LeftShoulder
				{
					OFFSET 4.175751 0.581444 10.709602
					CHANNELS 3 Xrotation Yrotation Zrotation
					JOINT LeftArm
					{
						OFFSET 0.000000 -0.000002 14.046600
						CHANNELS 3 Xrotation Yrotation Zrotation
						JOINT LeftArmRoll
						{
							OFFSET 0.000000 -0.000001 7.090973
							CHANNELS 3 Xrotation Yrotation Zrotation
							JOINT LeftForeArm
							{
								OFFSET 0.000000 -0.000004 20.653503
								CHANNELS 3 Xrotation Yrotation Zrotation
								JOINT LeftForeArmRoll
								{
									OFFSET 0.000000 -0.000001 7.957184
									CHANNELS 3 Xrotation Yrotation Zrotation
									JOINT LeftHand
									{
										OFFSET 0.000000 -0.000003 15.968292
										CHANNELS 3 Xrotation Yrotation Zrotation
										End Site
										{
											OFFSET 0.000000 0.000000 0.100006
										}
									}
								}
							}
						}
					}
				}
			}
		}
	}
	JOINT RightUpLeg
	{
		OFFSET -7.208340 1.108840 -1.321823
		CHANNELS 3 Xrotation Yrotation Zrotation
		JOINT RightUpLegRoll
		{
			OFFSET 0.000000 -0.000003 18.723801
			CHANNELS 3 Xrotation Yrotation Zrotation
			JOINT RightLeg
			{
				OFFSET 0.000000 0.000004 -23.186600
				CHANNELS 3 Xrotation Yrotation Zrotation
				JOINT RightLegRoll
				{
					OFFSET 0.000000 -0.000004 23.262398
					CHANNELS 3 Xrotation Yrotation Zrotation
					JOINT RightFoot
					{
						OFFSET 0.000000 -0.000003 19.362099
						CHANNELS 3 Xrotation Yrotation Zrotation
						JOINT RightToeBase
						{
							OFFSET 0.000000 -0.000003 16.185699
							CHANNELS 3 Xrotation Yrotation Zrotation
							End Site
							{
								OFFSET 0.006859 0.903521 7.838623
							}
						}
					}
				}
			}
		}
	}
	JOINT LeftUpLeg
	{
		OFFSET 7.208340 1.108840 -1.321823
		CHANNELS 3 Xrotation Yrotation Zrotation
		JOINT LeftUpLegRoll
		{
			OFFSET 0.000000 -0.000003 18.723900
			CHANNELS 3 Xrotation Yrotation Zrotation
			JOINT LeftLeg
			{
				OFFSET 0.000000 -0.000004 23.186501
				CHANNELS 3 Xrotation Yrotation Zrotation
				JOINT LeftLegRoll
				{
					OFFSET 0.000000 -0.000004 23.477493
					CHANNELS 3 Xrotation Yrotation Zrotation
					JOINT LeftFoot
					{
						OFFSET 0.000000 -0.000003 19.147003
						CHANNELS 3 Xrotation Yrotation Zrotation
						JOINT LeftToeBase
						{
							OFFSET 0.000000 -0.000003 16.185699
							CHANNELS 3 Xrotation Yrotation Zrotation
							End Site
							{
								OFFSET -0.030746 0.903521 7.838623
							}
						}
					}
				}
			}
		}
	}
}
MOTION
Frames: 13
Frame Time: 0.041667
53.467899 -3.691980 95.995590 -4.331858 1.222789 -3.096411 -0.752495 -0.434774 0.060672 2.498257 -0.854223 0.103695 4.143410 -0.852903 0.113916 12.098522 4.824855 -3.560152 0.217632 -2.964929 -3.527023 -18.094957 -56.396961 -21.375589 -42.137974 -121.854864 -23.392418 0.000003 0.000001 -0.000001 0.070880 -9.049365 -0.589851 -0.000004 -0.000007 -3.000001 -5.000199 -7.998866 0.000136 -13.830377 61.927126 16.435699 -48.899824 117.690484 41.028229 -0.000003 -0.000024 0.000004 7.722511 9.304523 0.255780 0.000005 -0.000004 3.000000 -5.000214 7.998864 -0.000134 -3.108669 -172.347147 3.136245 -179.999991 0.000005 -0.980003 167.606299 -0.510810 -0.655244 -0.000002 -0.000003 0.076059 69.459554 6.295380 3.651097 25.462749 -7.351275 0.008246 -0.517674 175.497175 -1.132057 -0.000020 -0.000004 -0.989271 -13.153289 2.246002 0.787546 0.000002 -0.000001 -0.147914 72.370888 -6.126990 -4.050987 25.456940 7.347079 -0.000001 
53.466000 -3.697349 95.991692 -4.335611 1.218255 -3.100164 -0.752929 -0.434880 0.060662 2.497400 -0.855779 0.104420 4.142543 -0.854409 0.114653 12.108947 4.829656 -3.563235 0.209990 -2.963730 -3.530212 -18.096422 -56.392753 -21.377310 -42.139795 -121.848526 -23.396193 0.000001 0.000000 -0.000001 0.070879 -9.051646 -0.589872 -0.000007 -0.000007 -3.000002 -5.000200 -7.998865 0.000136 -13.822229 61.943109 16.426721 -48.906709 117.679050 41.039936 -0.000001 -0.000023 0.000005 7.712365 9.309719 0.255285 0.000002 -0.000004 3.000000 -5.000212 7.998864 -0.000134 -3.113732 -172.331205 3.144091 -179.999991 0.000006 -0.980004 167.591395 -0.512742 -0.655809 -0.000001 -0.000004 0.076061 69.464390 6.294354 3.652836 25.462752 -7.351276 0.008244 -0.523774 175.512188 -1.124005 -0.000020 -0.000004 -0.989895 -13.171808 2.246437 0.787600 0.000003 -0.000001 -0.148630 72.381489 -6.130419 -4.040740 25.456936 7.347077 -0.000002 
53.487801 -3.698070 95.991402 -4.339464 1.213752 -3.103563 -0.753307 -0.435006 0.060645 2.496639 -0.857458 0.105150 4.141793 -0.856021 0.115397 12.118776 4.834878 -3.566559 0.202679 -2.962781 -3.533663 -18.098398 -56.387969 -21.379643 -42.140689 -121.842993 -23.399014 0.000002 0.000001 -0.000001 0.070882 -9.054059 -0.589883 -0.000005 -0.000007 -3.000001 -5.000203 -7.998864 0.000138 -13.814157 61.959385 16.417861 -48.912624 117.668491 41.051100 -0.000003 -0.000025 0.000004 7.702946 9.315048 0.254714 0.000000 -0.000004 3.000000 -5.000214 7.998863 -0.000134 -3.118763 -172.315264 3.151966 -179.999991 0.000005 -0.980004 167.576096 -0.513684 -0.655161 -0.000002 -0.000004 0.076066 69.469540 6.293318 3.654355 25.462752 -7.351275 0.008245 -0.529986 175.528185 -1.116046 -0.000020 -0.000004 -0.990506 -13.190427 2.246888 0.787642 0.000003 -0.000001 -0.149328 72.392198 -6.133848 -4.030485 25.456940 7.347077 -0.000001 
53.493801 -3.703969 95.992104 -4.343369 1.209259 -3.106731 -0.753644 -0.435147 0.060625 2.495971 -0.859223 0.105884 4.141115 -0.857706 0.116144 12.128312 4.840388 -3.570048 0.195586 -2.962013 -3.537283 -18.100746 -56.382812 -21.382430 -42.141577 -121.837447 -23.402243 0.000001 0.000001 0.000001 0.070878 -9.056546 -0.589889 -0.000005 -0.000006 -3.000001 -5.000203 -7.998865 0.000137 -13.806244 61.976057 16.409179 -48.920581 117.657549 41.064900 -0.000000 -0.000023 0.000005 7.694016 9.320474 0.254083 0.000002 -0.000003 2.999999 -5.000213 7.998863 -0.000134 -3.123765 -172.299322 3.159873 -179.999991 0.000006 -0.980004 167.560578 -0.514628 -0.655515 -0.000001 -0.000004 0.076072 69.474779 6.292246 3.656064 25.462751 -7.351275 0.008246 -0.536279 175.543197 -1.108155 -0.000020 -0.000004 -0.991107 -13.209344 2.247358 0.787689 0.000003 -0.000001 -0.150014 72.402894 -6.137233 -4.020325 25.456938 7.347077 -0.000001 
53.503601 -3.705290 95.987991 -4.347321 1.204785 -3.109757 -0.753961 -0.435297 0.060603 2.495343 -0.861038 0.106619 4.140488 -0.859433 0.116893 12.137549 4.846070 -3.573631 0.188624 -2.961344 -3.541005 -18.103317 -56.377413 -21.385467 -42.142469 -121.831928 -23.405479 0.000001 0.000000 -0.000001 0.070879 -9.059089 -0.589895 -0.000003 -0.000007 -3.000000 -5.000200 -7.998865 0.000140 -13.798388 61.992921 16.400570 -48.928852 117.646757 41.079247 -0.000000 -0.000024 0.000005 7.685378 9.325957 0.253427 0.000003 -0.000004 3.000000 -5.000215 7.998864 -0.000134 -3.128750 -172.284377 3.167844 -179.999991 0.000005 -0.980004 167.544977 -0.516559 -0.656089 -0.000002 -0.000004 0.076075 69.480127 6.291186 3.657667 25.462749 -7.351274 0.008245 -0.542615 175.558210 -1.100294 -0.000020 -0.000004 -0.991703 -13.228266 2.247836 0.787731 0.000003 -0.000001 -0.150694 72.413611 -6.140643 -4.010164 25.456943 7.347078 -0.000002 
53.520798 -3.691616 95.986000 -4.351277 1.200302 -3.112755 -0.754273 -0.435450 0.060582 2.494723 -0.862865 0.107354 4.139869 -0.861171 0.117643 12.146790 4.851791 -3.577242 0.181700 -2.960705 -3.544745 -18.105918 -56.371935 -21.388541 -42.142291 -121.827134 -23.407630 0.000001 0.000001 -0.000001 0.070881 -9.061651 -0.589900 -0.000003 -0.000006 -2.999998 -5.000201 -7.998864 0.000135 -13.790509 62.009792 16.391942 -48.935696 117.636621 41.092033 -0.000001 -0.000025 0.000005 7.676800 9.331457 0.252771 0.000001 -0.000004 3.000000 -5.000217 7.998864 -0.000134 -3.133730 -172.268449 3.175758 -179.999991 0.000006 -0.981001 167.529377 -0.517500 -0.655447 -0.000002 -0.000004 0.076079 69.485584 6.290130 3.659168 25.462754 -7.351275 0.008246 -0.548962 175.574193 -1.092456 -0.000020 -0.000004 -0.992297 -13.247286 2.248313 0.787774 0.000001 -0.000001 -0.151372 72.424300 -6.144019 -4.000002 25.456941 7.347078 -0.000001 
53.528900 -3.697025 95.980789 -4.355212 1.195819 -3.115814 -0.754594 -0.435598 0.060560 2.494084 -0.864666 0.108089 4.139231 -0.862889 0.118392 12.156127 4.857429 -3.580810 0.174711 -2.960007 -3.548439 -18.108399 -56.366553 -21.391475 -42.143036 -121.821533 -23.410730 0.000001 0.000000 -0.000000 0.070879 -9.064167 -0.589905 -0.000004 -0.000006 -2.999999 -5.000203 -7.998864 0.000139 -13.782593 62.026560 16.383266 -48.943817 117.625761 41.106186 -0.000001 -0.000024 0.000006 7.668095 9.336932 0.252118 0.000003 -0.000004 3.000000 -5.000213 7.998863 -0.000134 -3.138735 -172.252508 3.183668 -179.999991 0.000005 -0.981002 167.513777 -0.519416 -0.656020 -0.000001 -0.000004 0.076086 69.490925 6.289069 3.660771 25.462751 -7.351276 0.008247 -0.555287 175.589205 -1.084592 -0.000020 -0.000004 -0.992894 -13.266205 2.248780 0.787816 0.000003 -0.000001 -0.152053 72.435017 -6.147413 -3.989740 25.456940 7.347077 -0.000001 
53.544498 -3.712683 95.977394 -4.359102 1.191326 -3.119054 -0.754945 -0.435735 0.060541 2.493385 -0.866407 0.108821 4.138532 -0.864553 0.119138 12.165760 4.862858 -3.584268 0.167558 -2.959188 -3.552011 -18.110609 -56.361420 -21.394085 -42.143934 -121.816000 -23.413868 0.000001 0.000001 -0.000000 0.070879 -9.066634 -0.589914 -0.000007 -0.000007 -2.999998 -5.000199 -7.998864 0.000137 -13.774560 62.043034 16.374451 -48.951665 117.614751 41.119737 -0.000001 -0.000024 0.000005 7.659023 9.342329 0.251523 0.000003 -0.000004 3.000000 -5.000212 7.998863 -0.000134 -3.143741 -172.236552 3.191553 -179.999991 0.000005 -0.981002 167.498382 -0.520360 -0.656377 -0.000002 -0.000004 0.076091 69.496068 6.288027 3.662490 25.462749 -7.351275 0.008245 -0.561558 175.604205 -1.076687 -0.000020 -0.000004 -0.993498 -13.285025 2.249249 0.787864 0.000002 -0.000001 -0.152742 72.445726 -6.150802 -3.979574 25.456940 7.347078 -0.000001 
53.544201 -3.709956 95.973595 -4.362927 1.186823 -3.122557 -0.755340 -0.435856 0.060526 2.492596 -0.868050 0.109549 4.137753 -0.866134 0.119879 12.175791 4.867944 -3.587521 0.160142 -2.958159 -3.555376 -18.112458 -56.356847 -21.396273 -42.145914 -121.809717 -23.417867 -0.000001 0.000000 0.000001 0.070878 -9.069006 -0.589928 -0.000007 -0.000007 -3.000002 -5.000200 -7.998864 0.000138 -13.766467 62.059304 16.365536 -48.957601 117.604205 41.130737 -0.000002 -0.000025 0.000005 7.649388 9.347624 0.250982 0.000003 -0.000003 3.000000 -5.000213 7.998864 -0.000134 -3.148784 -172.220624 3.199411 -179.999991 0.000006 -0.981001 167.483164 -0.521316 -0.655736 -0.000001 -0.000004 0.076094 69.501109 6.286983 3.664116 25.462751 -7.351276 0.008247 -0.567735 175.620201 -1.068732 -0.000019 -0.000004 -0.994113 -13.303644 2.249699 0.787914 0.000002 -0.000001 -0.153446 72.456347 -6.154218 -3.969319 25.456943 7.347078 -0.000001 
53.564899 -3.703806 95.972191 -4.366651 1.182290 -3.126446 -0.755796 -0.435953 0.060517 2.491687 -0.869556 0.110272 4.136846 -0.867599 0.120614 12.186415 4.872561 -3.590528 0.152364 -2.956850 -3.558470 -18.113759 -56.352981 -21.397798 -42.147885 -121.803446 -23.421567 0.000003 0.000001 0.000000 0.070878 -9.071246 -0.589953 -0.000004 -0.000006 -2.999999 -5.000204 -7.998864 0.000137 -13.758117 62.074993 16.356331 -48.964274 117.592621 41.141993 -0.000002 -0.000023 0.000005 7.638956 9.352759 0.250537 0.000002 -0.000004 3.000000 -5.000215 7.998862 -0.000134 -3.153871 -172.204683 3.207211 -179.999991 0.000006 -0.981001 167.468370 -0.523231 -0.656303 -0.000002 -0.000004 0.076096 69.505829 6.285945 3.665858 25.462752 -7.351276 0.008246 -0.573786 175.635214 -1.060670 -0.000020 -0.000004 -0.994743 -13.321963 2.250133 0.787970 0.000003 -0.000001 -0.154168 72.466975 -6.157654 -3.958963 25.456940 7.347077 -0.000002 
53.580200 -3.708060 95.975403 -4.370244 1.177717 -3.130811 -0.756330 -0.436021 0.060516 2.490618 -0.870892 0.110989 4.135779 -0.868917 0.121341 12.197835 4.876597 -3.593201 0.144140 -2.955191 -3.561218 -18.114304 -56.349829 -21.398412 -42.149876 -121.797163 -23.424781 0.000001 0.000001 0.000000 0.070881 -9.073316 -0.589986 -0.000005 -0.000007 -2.999997 -5.000202 -7.998865 0.000136 -13.749604 62.090197 16.346903 -48.969854 117.580545 41.151343 -0.000002 -0.000025 0.000004 7.627532 9.357702 0.250213 0.000002 -0.000004 3.000000 -5.000213 7.998864 -0.000134 -3.159009 -172.188741 3.214969 -179.999991 0.000005 -0.981001 167.453863 -0.524177 -0.656652 -0.000002 -0.000003 0.076096 69.510152 6.284955 3.667735 25.462749 -7.351275 0.008246 -0.579677 175.651224 -1.052502 -0.000020 -0.000004 -0.995393 -13.339882 2.250540 0.788028 0.000003 -0.000001 -0.154914 72.477487 -6.161090 -3.948618 25.456940 7.347077 -0.000001 
53.597298 -3.703717 95.972298 -4.373688 1.173116 -3.135752 -0.756961 -0.436053 0.060523 2.489358 -0.872018 0.111698 4.134518 -0.870056 0.122058 12.210243 4.879917 -3.595481 0.135353 -2.953092 -3.563538 -18.114056 -56.347835 -21.398090 -42.154019 -121.789404 -23.429933 0.000000 0.000001 0.000001 0.070881 -9.075187 -0.590034 -0.000003 -0.000006 -3.000000 -5.000199 -7.998865 0.000139 -13.740785 62.104615 16.337099 -48.974543 117.568046 41.158758 -0.000002 -0.000023 0.000006 7.614894 9.362417 0.250022 0.000002 -0.000004 2.999999 -5.000214 7.998863 -0.000134 -3.164217 -172.172813 3.222646 -179.999991 0.000007 -0.981000 167.439970 -0.525122 -0.656997 -0.000001 -0.000004 0.076094 69.514066 6.284004 3.669541 25.462751 -7.351275 0.008247 -0.585376 175.667234 -1.044183 -0.000020 -0.000004 -0.996066 -13.357400 2.250912 0.788095 0.000003 -0.000001 -0.155689 72.488033 -6.164545 -3.938270 25.456940 7.347078 -0.000001 
53.604301 -3.705735 95.974991 -4.376959 1.168464 -3.141380 -0.757702 -0.436042 0.060542 2.487879 -0.872898 0.112397 4.133029 -0.870986 0.122765 12.223638 4.882399 -3.597289 0.125918 -2.950493 -3.565360 -18.112779 -56.346995 -21.396536 -42.158328 -121.781699 -23.434522 0.000002 0.000001 -0.000001 0.070881 -9.076807 -0.590095 -0.000003 -0.000007 -3.000001 -5.000200 -7.998865 0.000137 -13.731658 62.118241 16.326925 -48.977726 117.554837 41.163508 -0.000001 -0.000023 0.000004 7.600817 9.366853 0.249997 0.000002 -0.000004 3.000000 -5.000215 7.998864 -0.000134 -3.169496 -172.156871 3.230251 -179.999991 0.000005 -0.980004 167.426569 -0.526080 -0.656342 -0.000002 -0.000003 0.076091 69.517454 6.283056 3.671579 25.462751 -7.351278 0.008245 -0.590848 175.683230 -1.035695 -0.000020 -0.000004 -0.996767 -13.374418 2.251259 0.788173 0.000002 -0.000001 -0.156499 72.498367 -6.168060 -3.927743 25.456940 7.347077 -0.000001 
